<svg id="Layer_1" data-name="Layer 1" xmlns="http://www.w3.org/2000/svg" width="217.96" height="199.23" viewBox="0 0 217.96 199.23"><title>Alpine F1 Team logo - Brandlogos.net</title><path d="M308.68,393.69l29.22,0,31.29-24.18h53.12l-7.88,24.18h23.63l7.83-24.18h26.63l19.81-15.34H450.92l22.73-69.81H450l-90.22,69.81H324.1L333.94,324,275,369.53h64.89Zm131.5-79.07-12.86,39.57H389Z" transform="translate(-275.02 -284.38)" style="fill:#02192b"/><path d="M333.17,460.23H335v-5.64h6.39v-1.64H335v-3.83h7v-1.64h-8.79Z" transform="translate(-275.02 -284.38)" style="fill:#02192b"/><path d="M347.57,449h3.18v11.18h1.82V447.47h-5Z" transform="translate(-275.02 -284.38)" style="fill:#02192b"/><path d="M360.41,447.1a2.21,2.21,0,1,0,2.21,2.21,2.09,2.09,0,0,0-2.21-2.21m0,4a1.83,1.83,0,1,1,1.79-1.82,1.71,1.71,0,0,1-1.79,1.82" transform="translate(-275.02 -284.38)" style="fill:#02192b"/><path d="M361.39,448.84c0-.49-.32-.73-.94-.73h-1v2.4H360v-.89h.33l.51.89h.58l-.55-1a.66.66,0,0,0,.51-.68m-.92.34H360v-.64h.45c.25,0,.37.12.37.31s-.11.33-.37.33" transform="translate(-275.02 -284.38)" style="fill:#02192b"/><path d="M373.33,449.12h4.41v11.11h1.81V449.12h4.4v-1.64H373.33Z" transform="translate(-275.02 -284.38)" style="fill:#02192b"/><path d="M389.94,460.23h8.79v-1.64h-7v-4h6.39v-1.64h-6.39v-3.83h7v-1.64h-8.79Z" transform="translate(-275.02 -284.38)" style="fill:#02192b"/><path d="M408.59,447.48,404,460.23H406l1.16-3.34h5.52l1.16,3.34h1.93l-4.56-12.74Zm-.87,7.76,2.18-6.3,2.18,6.3Z" transform="translate(-275.02 -284.38)" style="fill:#02192b"/><path d="M428.58,458.85l-3.63-11.37h-3.11v12.74h1.82v-11l3.53,11H430L433.54,449v11.18h1.82V447.48h-3.15Z" transform="translate(-275.02 -284.38)" style="fill:#02192b"/><path d="M275,432.23h6l3.15-3.55h17.08l3.15,3.55h6L292.66,413Zm12.11-6.91,5.52-6.22,5.52,6.22Z" transform="translate(-275.02 -284.38)" style="fill:#02192b"/><path d="M404.1,413.57h-5v18.68h5Z" transform="translate(-275.02 -284.38)" style="fill:#02192b"/><path d="M446.07,425.08l-20.86-11.53h-5.1v18.68h4.67V418.44l26,14.33V413.56h-4.72Z" transform="translate(-275.02 -284.38)" style="fill:#02192b"/><path d="M326.17,413.57h-5v18.68H344l1.41-3.36H326.17Z" transform="translate(-275.02 -284.38)" style="fill:#02192b"/><path d="M471.85,428.88v-4.46h20.46v-3.36H471.85v-4.14h20.46v-3.36H466.81v18.68H492l.94-3.36Z" transform="translate(-275.02 -284.38)" style="fill:#02192b"/><path d="M377.64,413.57H356.06v18.68h5V426h16.3c6.06,0,8.41-2.54,8.41-6.3s-2.56-6.14-8.17-6.14m-1.2,9.07H361.1v-5.71h15.31c3,0,4,.93,4,2.91,0,1.73-1.31,2.8-3.95,2.8" transform="translate(-275.02 -284.38)" style="fill:#02192b"/><path d="M368,480.42l-4,3.2h14.62l4-3.2Z" transform="translate(-275.02 -284.38)" style="fill:#2173b8"/><path d="M382.58,480.42l-4,3.2h6.82l4-3.2Z" transform="translate(-275.02 -284.38)" style="fill:#fffffd"/><path d="M389.41,480.42l-4,3.2H400l4-3.2Z" transform="translate(-275.02 -284.38)" style="fill:#e12319"/></svg>