<?xml version="1.0" standalone="no"?>
<!DOCTYPE svg PUBLIC "-//W3C//DTD SVG 20010904//EN"
 "http://www.w3.org/TR/2001/REC-SVG-20010904/DTD/svg10.dtd">
<svg version="1.0" xmlns="http://www.w3.org/2000/svg"
 width="1024.000000pt" height="1024.000000pt" viewBox="0 0 1024.000000 1024.000000"
 preserveAspectRatio="xMidYMid meet">

<g transform="translate(0.000000,1024.000000) scale(0.100000,-0.100000)"
fill="#000000" stroke="none">
<path d="M1333 7863 c-32 -4 -73 -42 -73 -68 0 -7 18 -49 41 -94 48 -97 105
-161 141 -161 36 0 63 -25 112 -105 47 -78 85 -109 145 -119 35 -5 44 -13 85
-73 28 -43 61 -78 90 -96 28 -17 192 -74 428 -148 626 -196 942 -300 962 -317
10 -10 33 -39 51 -67 45 -69 91 -110 155 -138 65 -29 288 -96 803 -243 480
-136 430 -144 694 110 77 75 145 136 151 136 5 0 16 -7 23 -17 8 -9 78 -76
157 -149 162 -153 220 -189 291 -182 40 4 671 187 1036 300 183 56 217 77 281
169 30 42 60 81 66 86 14 10 223 78 748 245 173 55 385 122 471 149 174 56
205 75 269 170 34 49 46 59 78 65 64 12 91 33 138 107 60 93 82 117 111 117
12 0 40 16 61 35 43 38 122 182 122 221 0 38 -32 62 -92 69 -29 3 -762 5
-1628 3 l-1575 -3 -46 -23 c-53 -26 -127 -97 -167 -159 l-27 -43 -317 0 -317
0 -39 53 c-52 69 -114 124 -171 151 l-46 21 -1590 1 c-874 1 -1605 -1 -1622
-3z m1611 -94 c25 -7 59 -31 100 -72 l61 -62 -825 -7 -825 -7 -23 22 c-19 18
-72 114 -72 131 0 11 1543 6 1584 -5z m1628 -17 c58 -29 130 -106 101 -109
-10 -1 -349 -4 -755 -6 l-736 -3 -15 26 c-9 14 -34 47 -58 73 l-42 48 729 -3
729 -3 47 -23z m2533 -44 l-67 -73 -747 4 c-410 2 -747 4 -748 5 -2 2 13 21
33 45 47 54 85 74 159 82 33 3 370 7 748 7 l689 2 -67 -72z m1765 62 c0 -16
-45 -102 -66 -127 l-19 -22 -829 7 -830 7 52 53 c96 98 27 92 915 92 528 0
777 -3 777 -10z m-5702 -245 c12 -19 22 -36 22 -38 0 -3 -69 -7 -152 -11 -134
-6 -549 -31 -1098 -66 -91 -6 -183 -13 -206 -16 -37 -5 -43 -3 -72 30 -18 20
-41 54 -52 76 -19 37 -19 40 -3 41 103 8 531 16 983 17 l555 2 23 -35z m283
25 c10 -6 19 -17 19 -25 0 -25 -38 -36 -116 -33 -73 3 -78 4 -102 36 l-25 32
102 0 c56 0 111 -5 122 -10z m3517 -22 c-25 -33 -27 -33 -108 -33 -69 0 -85 3
-94 18 -20 34 16 47 127 47 l100 0 -25 -32z m1678 19 c8 -7 -53 -110 -78 -135
-23 -21 -24 -21 -218 -6 -225 16 -774 50 -1095 66 -121 6 -222 13 -224 14 -1
1 10 19 25 40 l29 37 778 -6 c428 -3 781 -7 783 -10z m-4674 -15 c4 -4 5 -18
1 -30 -5 -20 -8 -21 -22 -9 -46 40 -91 26 -91 -28 0 -32 4 -37 59 -64 62 -32
71 -44 71 -95 0 -41 -39 -83 -85 -92 -44 -8 -108 13 -101 33 3 8 6 21 6 30 0
11 8 8 31 -11 37 -31 53 -32 79 -6 34 34 26 67 -22 91 -65 32 -88 57 -88 96 0
46 15 72 53 89 31 13 93 11 109 -4z m498 -4 c58 -30 85 -76 85 -148 0 -69 -28
-117 -85 -149 -99 -55 -220 22 -220 141 0 103 62 173 155 177 12 1 41 -9 65
-21z m-800 1 c0 -8 53 -154 106 -292 5 -13 1 -17 -19 -17 -23 0 -36 22 -63
108 -2 7 -22 12 -53 12 l-49 0 -24 -60 c-16 -42 -28 -60 -40 -60 -10 0 -18 5
-18 10 0 6 23 64 50 129 28 65 50 121 50 124 0 3 4 17 10 31 9 26 50 38 50 15z
m560 -4 c0 -11 -11 -15 -40 -15 l-40 0 0 -146 0 -145 -26 3 -26 3 1 143 2 142
-46 0 c-33 0 -45 4 -45 15 0 12 19 15 110 15 91 0 110 -3 110 -15z m503 -96
l97 -111 0 111 c0 107 1 111 21 111 20 0 21 -4 15 -52 -3 -29 -6 -101 -6 -160
0 -60 -4 -108 -8 -108 -5 0 -53 53 -108 117 l-99 118 -3 -118 c-2 -95 -5 -117
-17 -117 -13 0 -15 26 -15 160 0 122 3 160 13 160 7 0 56 -50 110 -111z m465
-6 l59 -116 56 116 c32 67 62 117 70 117 10 0 17 -29 26 -117 6 -65 14 -137
18 -160 5 -43 5 -43 -26 -43 -31 0 -31 1 -32 53 -1 28 -4 77 -7 107 l-7 55
-42 -88 c-24 -49 -43 -92 -43 -97 0 -4 -7 -13 -15 -20 -12 -10 -23 4 -67 96
l-53 109 -9 -107 c-8 -97 -10 -108 -28 -108 -14 0 -18 5 -14 18 2 9 7 58 11
107 10 158 16 195 31 195 8 0 40 -52 72 -117z m427 105 c7 -22 101 -272 110
-291 7 -16 4 -18 -21 -15 -25 3 -32 11 -51 58 l-22 55 -49 3 -49 3 -18 -61
c-16 -52 -21 -60 -42 -60 -14 0 -23 4 -21 9 84 219 125 310 141 311 10 0 19
-6 22 -12z m315 -3 c62 -32 37 -143 -32 -145 -10 0 -18 -3 -18 -6 0 -3 22 -31
48 -62 81 -96 79 -92 40 -92 -30 0 -39 7 -86 70 -29 39 -56 70 -60 70 -4 0 -6
-31 -4 -70 4 -69 3 -70 -22 -70 l-26 0 0 160 0 160 65 0 c39 0 78 -6 95 -15z
m300 1 c0 -10 -13 -16 -41 -18 l-41 -3 1 -143 2 -143 -28 3 -28 3 0 143 0 142
-42 0 c-32 0 -43 4 -43 15 0 12 19 15 110 15 89 0 110 -3 110 -14z m90 -146
l0 -160 -25 0 -25 0 0 160 0 160 25 0 25 0 0 -160z m163 83 c36 -43 79 -94 96
-113 l31 -35 -6 113 c-7 110 -6 112 15 112 21 0 21 -3 21 -160 0 -96 -4 -160
-10 -160 -5 0 -53 53 -107 117 l-98 117 -3 -117 c-2 -111 -4 -117 -23 -117
-15 0 -19 5 -15 16 3 9 6 81 6 160 0 117 3 144 14 144 8 0 43 -35 79 -77z
m-3033 -48 c19 -23 0 -37 -58 -43 -43 -4 -51 -1 -66 19 -9 13 -16 27 -16 31 0
5 29 8 64 8 45 0 67 -4 76 -15z m3440 10 c0 -22 -36 -55 -59 -55 -62 0 -87 20
-59 48 12 12 118 18 118 7z m-3646 -39 l26 -35 -58 -6 c-58 -6 -179 -21 -829
-100 -447 -54 -460 -55 -495 -17 -26 28 -68 87 -68 95 0 13 623 57 1285 90 33
2 72 4 86 5 20 2 33 -7 53 -32z m4361 -2 c734 -45 785 -49 785 -63 0 -16 -60
-100 -79 -110 -30 -16 -66 -14 -363 23 -150 19 -437 53 -638 77 -201 23 -367
44 -369 45 -2 2 7 17 19 33 l21 31 117 -6 c64 -3 293 -16 507 -30z m-4151 -93
c3 -5 -1 -14 -10 -22 -13 -10 -19 -9 -37 9 l-21 22 31 0 c18 0 34 -4 37 -9z
m3346 1 c0 -5 -8 -16 -19 -26 -16 -14 -20 -15 -30 -2 -7 8 -10 20 -6 26 7 12
55 14 55 2z m-3471 -33 c13 -17 21 -32 19 -34 -1 -1 -73 -15 -158 -29 -212
-37 -455 -81 -640 -117 l-154 -30 -141 42 c-77 23 -143 45 -148 49 -4 3 102
19 235 35 134 15 394 47 578 71 184 23 347 42 361 43 17 1 32 -8 48 -30z
m3968 -13 c368 -46 791 -96 808 -96 6 0 6 -3 0 -9 -14 -13 -293 -93 -303 -87
-10 6 -481 92 -754 138 -109 18 -198 36 -198 39 0 19 44 59 65 59 13 0 185
-20 382 -44z m-3852 -107 c14 -18 22 -35 18 -39 -4 -3 -111 -35 -238 -69 -126
-34 -267 -73 -311 -87 -45 -13 -88 -24 -95 -24 -7 0 -72 19 -145 42 -123 38
-157 58 -100 58 21 0 158 25 671 120 83 15 155 28 162 29 6 0 23 -13 38 -30z
m3545 -3 c96 -19 288 -53 425 -76 138 -23 257 -44 265 -47 8 -2 -50 -25 -129
-50 l-144 -45 -291 76 c-160 42 -315 84 -344 92 l-54 16 33 34 c18 19 40 34
48 34 9 0 95 -16 191 -34z m-2940 -31 c0 -6 -297 -155 -307 -155 -17 1 -148
129 -140 136 15 15 447 33 447 19z m330 -9 c-82 -75 -381 -306 -397 -306 -15
0 -163 98 -163 108 0 4 35 27 78 50 42 22 122 68 177 101 l100 60 110 1 c92 0
107 -2 95 -14z m104 -143 c-70 -87 -151 -186 -181 -220 l-53 -61 -76 29 c-131
50 -136 32 58 191 95 78 193 158 217 180 40 35 49 38 102 38 l59 0 -126 -157z
m306 149 c0 -4 -4 -12 -9 -17 -5 -6 -46 -91 -91 -190 -85 -185 -127 -271 -142
-291 -6 -9 -35 -5 -106 13 -53 13 -101 28 -105 33 -5 4 35 61 90 126 54 66
136 167 183 227 l84 107 48 0 c26 0 48 -4 48 -8z m150 -1 c0 -32 -90 -455
-116 -542 -5 -17 -7 -17 -119 2 -105 18 -101 8 -43 122 47 94 152 318 184 395
13 28 19 32 54 32 22 0 40 -4 40 -9z m128 -278 c2 -264 1 -283 -15 -284 -25
-2 -157 2 -160 5 -2 1 17 90 41 197 24 107 49 228 56 269 17 103 16 102 47 98
l28 -3 3 -282z m152 180 c12 -60 39 -187 60 -283 22 -96 38 -176 37 -177 -6
-6 -166 -7 -172 -1 -4 3 -9 133 -12 287 l-6 281 35 0 35 0 23 -107z m177 -10
c30 -65 87 -183 126 -263 38 -80 71 -147 71 -150 1 -6 -136 -28 -180 -29 l-30
-1 -32 138 c-33 140 -82 386 -82 409 0 8 13 13 36 13 l35 0 56 -117z m218 -19
c61 -75 145 -177 187 -228 43 -50 78 -94 78 -98 0 -9 -203 -57 -214 -50 -10 6
-246 488 -246 503 0 5 19 9 43 9 42 0 42 -1 152 -136z m170 70 c44 -37 146
-119 228 -182 l147 -116 -77 -32 c-134 -56 -110 -67 -264 118 -75 90 -158 189
-183 221 l-47 57 58 0 c58 0 60 -1 138 -66z m354 6 c55 -32 136 -78 181 -100
44 -22 80 -44 80 -48 0 -4 -39 -33 -85 -65 l-85 -58 -157 120 c-87 66 -180
140 -208 165 l-50 45 112 1 111 0 101 -60z m434 42 l27 -7 -67 -67 -68 -66
-155 79 -155 80 195 -6 c107 -3 207 -9 223 -13z m-2973 -115 l72 -67 -38 -16
c-22 -9 -103 -42 -181 -75 -78 -32 -145 -59 -150 -59 -21 -1 -352 115 -346
121 5 3 121 39 258 78 138 40 261 76 275 81 14 5 28 8 31 7 3 -1 39 -32 79
-70z m3298 9 c119 -35 250 -72 290 -82 39 -10 72 -21 72 -25 0 -4 -77 -33
-172 -64 l-171 -57 -86 32 c-119 45 -291 121 -291 128 0 10 123 132 133 132 5
0 106 -29 225 -64z m-2978 -248 c0 -4 -66 -54 -147 -112 -98 -71 -155 -106
-173 -106 -45 0 -127 29 -160 56 -36 31 -95 113 -86 121 3 3 90 43 192 87
l187 81 93 -60 c51 -33 93 -63 94 -67z m2749 48 c96 -42 178 -79 183 -84 8 -8
-47 -96 -79 -124 -24 -22 -126 -58 -164 -58 -26 0 -51 16 -248 160 -69 50 -73
55 -55 67 10 8 53 38 94 68 41 30 80 52 85 50 6 -2 89 -38 184 -79z m-2569
-127 c52 -22 97 -43 99 -45 2 -2 -40 -53 -94 -114 -113 -128 -83 -122 -284
-58 -81 26 -120 43 -114 49 23 23 279 208 288 209 6 0 53 -18 105 -41z m2260
-62 c74 -56 134 -106 133 -112 -1 -5 -56 -27 -123 -47 -194 -59 -164 -66 -273
63 l-96 113 100 37 c55 20 103 40 106 43 11 10 15 8 153 -97z m-1960 -37 c58
-16 106 -30 108 -30 8 0 -119 -226 -132 -235 -10 -6 -56 3 -150 30 -75 21
-136 41 -136 44 0 13 182 221 193 221 7 0 59 -13 117 -30z m1620 -72 c46 -57
87 -108 92 -114 11 -15 -248 -91 -268 -78 -16 9 -145 226 -139 232 3 4 204 59
221 61 6 0 49 -45 94 -101z m-1313 6 c54 -9 99 -18 101 -19 6 -5 -50 -191 -64
-213 -9 -13 -32 -30 -52 -39 -33 -14 -42 -13 -124 8 -48 12 -93 26 -100 30
-18 12 100 249 124 249 9 0 61 -7 115 -16z m948 -23 c41 -65 116 -204 112
-208 -7 -7 -171 -53 -189 -53 -34 0 -97 40 -114 72 -16 30 -65 190 -60 195 4
4 169 30 198 32 22 1 33 -7 53 -38z m-688 -5 c1 -1 -25 -29 -58 -62 l-61 -59
7 45 c14 85 19 91 67 84 24 -4 44 -8 45 -8z m380 -41 c21 -81 16 -82 -47 -20
l-61 60 28 6 c56 13 66 7 80 -46z"/>
<path d="M4361 7506 c-36 -20 -50 -55 -50 -121 -1 -68 12 -99 51 -128 60 -45
138 20 138 115 0 52 -18 105 -42 125 -23 20 -71 24 -97 9z"/>
<path d="M3623 7433 c-6 -21 -15 -46 -18 -55 -6 -15 -1 -18 35 -18 38 0 41 2
34 22 -9 29 -34 88 -37 88 -1 0 -7 -17 -14 -37z"/>
<path d="M5581 7437 c-26 -66 -25 -72 14 -74 39 -2 40 1 10 72 l-13 30 -11
-28z"/>
<path d="M5830 7455 l0 -55 35 0 c44 0 71 34 56 72 -10 27 -29 38 -67 38 -22
0 -24 -3 -24 -55z"/>
<path d="M1229 5436 c-23 -56 -94 -218 -157 -361 -62 -143 -116 -266 -119
-273 -4 -10 7 -12 46 -10 l52 3 47 120 48 120 126 3 126 3 36 -93 c19 -51 41
-108 47 -125 l11 -33 74 0 74 0 -19 38 c-10 20 -82 186 -161 368 -171 401
-165 395 -231 240z m49 -334 c-50 -1 -93 -1 -96 2 -2 3 12 43 31 89 20 46 41
97 47 113 11 28 13 26 60 -86 l48 -115 -90 -3z"/>
<path d="M1853 5524 c-71 -26 -133 -113 -133 -189 0 -89 52 -151 180 -215 113
-57 150 -94 150 -149 0 -44 -33 -99 -70 -118 -62 -31 -173 -3 -224 58 -14 16
-26 29 -28 29 -2 0 -2 -29 0 -64 3 -59 6 -65 30 -75 203 -81 402 15 402 194 0
99 -59 171 -178 219 -40 16 -89 44 -110 62 -34 30 -37 36 -37 88 0 66 20 92
81 106 54 13 103 -3 144 -45 19 -19 38 -35 42 -35 4 0 8 27 8 59 l0 59 -47 16
c-57 20 -154 19 -210 0z"/>
<path d="M3127 5530 c-110 -28 -194 -96 -244 -197 -37 -74 -38 -81 -38 -182 0
-93 3 -113 26 -161 69 -147 178 -211 359 -211 75 0 110 5 154 22 82 30 152 91
195 169 36 65 36 65 36 190 0 113 -2 130 -25 175 -36 74 -114 147 -185 175
-67 25 -214 36 -278 20z m186 -64 c64 -23 107 -64 141 -135 29 -61 31 -74 31
-171 0 -94 -3 -111 -28 -166 -50 -108 -121 -156 -228 -155 -69 0 -113 19 -163
68 -65 66 -81 112 -81 243 0 140 20 196 96 264 70 63 149 81 232 52z"/>
<path d="M3769 5295 c-1 -132 -4 -300 -8 -373 l-6 -132 48 0 47 0 -5 238 c-3
130 -8 250 -10 265 -3 16 -1 27 3 25 8 -3 255 -264 421 -446 47 -51 93 -92
103 -92 17 0 18 16 18 268 0 148 3 317 7 375 l6 107 -52 0 c-45 0 -52 -2 -47
-17 6 -23 20 -503 14 -503 -2 0 -115 118 -251 263 -167 179 -252 263 -266 263
-21 0 -21 -5 -22 -241z"/>
<path d="M8600 5293 c0 -137 -3 -305 -7 -375 l-6 -128 46 0 47 0 -6 268 -6
267 34 -35 c19 -19 111 -116 203 -215 93 -99 193 -206 223 -237 91 -98 88
-106 90 250 1 169 5 337 8 375 l7 67 -52 0 -51 0 5 -92 c11 -206 15 -428 8
-428 -5 0 -120 119 -256 265 -159 169 -255 265 -268 265 -18 0 -19 -10 -19
-247z"/>
<path d="M5060 5521 c0 -24 -43 -404 -63 -558 l-23 -173 48 0 48 0 0 71 c0 63
27 409 34 434 1 5 62 -107 135 -248 73 -141 136 -257 141 -257 5 0 55 89 111
198 56 108 116 222 133 252 l31 55 6 -54 c4 -30 15 -144 25 -253 l18 -198 67
0 c59 0 67 2 63 18 -2 9 -22 161 -44 337 -51 412 -47 387 -71 383 -16 -2 -55
-67 -159 -263 -77 -143 -143 -261 -147 -262 -4 -2 -48 73 -97 165 -185 347
-195 362 -227 362 -16 0 -29 -4 -29 -9z"/>
<path d="M6252 5438 c-22 -51 -94 -218 -160 -371 l-119 -278 50 3 51 3 47 120
46 120 124 3 124 3 45 -126 45 -125 77 0 78 0 -30 63 c-16 34 -89 200 -161
370 -157 366 -153 362 -217 215z m93 -218 c20 -52 39 -101 42 -107 4 -10 -18
-13 -92 -13 -74 0 -96 3 -92 13 3 6 25 58 48 115 23 56 45 99 49 95 4 -4 24
-51 45 -103z"/>
<path d="M6805 5161 l0 -371 63 0 63 0 -3 165 c-3 161 0 177 27 157 6 -4 66
-78 134 -164 l122 -158 80 0 c75 0 79 1 67 18 -7 10 -68 84 -135 164 -68 80
-123 148 -123 150 0 3 19 10 43 17 75 22 127 59 148 104 35 78 20 165 -37 219
-50 47 -104 59 -284 65 l-165 6 0 -372z m276 288 c81 -25 120 -108 84 -183
-24 -50 -73 -73 -163 -79 l-72 -4 0 138 0 139 56 0 c31 0 74 -5 95 -11z"/>
<path d="M8220 5158 l0 -368 63 0 62 0 0 370 0 371 -62 -3 -63 -3 0 -367z"/>
<path d="M2244 5484 l1 -37 108 2 108 2 -3 -330 -3 -331 65 0 65 0 0 327 0
328 108 3 107 3 0 34 0 35 -279 0 -278 0 1 -36z"/>
<path d="M7450 5483 l0 -38 115 3 115 4 0 -331 0 -331 63 0 62 0 0 327 0 328
113 3 112 3 0 34 0 35 -290 0 -290 0 0 -37z"/>
<path d="M2553 4285 c-149 -40 -250 -144 -289 -295 -21 -82 -15 -233 12 -303
41 -107 136 -189 259 -223 46 -13 117 -18 311 -21 l252 -5 7 154 c9 208 -6
415 -35 493 -35 90 -115 167 -204 194 -81 25 -231 28 -313 6z m234 -195 c18
-10 42 -39 55 -62 21 -39 23 -58 26 -224 l4 -181 -81 -7 c-193 -16 -292 55
-308 218 -11 116 34 222 108 259 49 24 155 23 196 -3z"/>
<path d="M3550 4285 c-133 -37 -217 -104 -268 -213 -27 -57 -27 -57 -30 -344
l-3 -288 115 0 116 0 0 253 c0 267 5 308 46 356 41 49 99 65 209 58 80 -5 95
-3 95 9 0 9 14 49 31 90 17 41 29 78 25 81 -3 3 -67 7 -143 9 -103 3 -152 0
-193 -11z"/>
<path d="M4185 4286 c-147 -36 -246 -135 -290 -290 -24 -82 -17 -239 14 -319
27 -69 96 -143 164 -176 98 -48 139 -53 405 -58 l252 -5 0 249 c0 136 -5 277
-10 313 -23 140 -106 242 -227 280 -75 23 -226 26 -308 6z m235 -198 c65 -44
75 -81 78 -284 l4 -181 -79 -6 c-158 -12 -235 21 -289 123 -29 53 -27 210 2
265 41 76 91 105 185 105 52 0 73 -5 99 -22z"/>
<path d="M5110 4294 c-102 -18 -146 -27 -190 -40 l-50 -15 0 -399 0 -400 115
0 115 0 0 325 0 324 42 12 c60 16 152 7 186 -18 46 -34 51 -65 51 -365 l1
-278 109 0 108 0 7 38 c3 20 6 166 6 324 l0 287 56 11 c75 16 138 6 176 -29
42 -37 46 -76 47 -383 l1 -248 115 0 115 0 0 285 c0 352 -9 404 -84 483 -41
44 -87 67 -164 82 -78 16 -232 8 -326 -16 -65 -16 -71 -16 -125 1 -54 18 -250
30 -311 19z"/>
<path d="M6551 4285 c-81 -23 -147 -63 -200 -121 -86 -94 -117 -190 -108 -339
8 -149 61 -255 161 -322 124 -84 342 -96 490 -28 87 40 85 34 30 119 -35 55
-53 74 -64 69 -81 -34 -129 -45 -192 -40 -82 5 -128 32 -166 95 -24 42 -27 56
-27 142 0 102 16 150 67 197 58 55 176 69 278 33 34 -12 56 -15 59 -8 2 5 22
38 46 74 l43 63 -25 16 c-84 56 -282 81 -392 50z"/>
<path d="M7350 4282 c-235 -62 -384 -299 -326 -519 22 -82 57 -143 116 -203
219 -219 601 -154 731 124 59 126 58 252 -2 374 -92 187 -306 279 -519 224z
m216 -196 c95 -44 164 -162 148 -253 -22 -125 -125 -213 -249 -213 -68 0 -110
17 -163 64 -85 77 -106 188 -54 286 64 123 198 172 318 116z"/>
<path d="M1900 2858 c-50 -17 -133 -104 -148 -154 -42 -142 41 -284 183 -314
138 -29 277 55 306 184 25 112 -24 216 -125 268 -49 25 -163 33 -216 16z m171
-84 c89 -45 116 -168 55 -249 -96 -126 -301 -54 -299 106 2 127 128 201 244
143z"/>
<path d="M5274 2846 c-129 -60 -180 -202 -116 -327 64 -127 217 -172 352 -104
56 28 83 57 109 115 43 94 19 203 -59 273 -79 71 -189 88 -286 43z m186 -71
c80 -42 116 -164 68 -234 -65 -95 -177 -109 -257 -33 -76 73 -79 162 -7 237
41 44 44 45 105 45 36 0 74 -6 91 -15z"/>
<path d="M1335 2625 l0 -235 43 0 42 0 0 95 0 95 95 0 95 0 0 38 0 37 -95 -3
-95 -3 0 72 0 72 120 -6 120 -7 0 40 0 40 -162 0 -163 0 0 -235z"/>
<path d="M2350 2625 l0 -235 43 0 42 0 -3 90 -4 90 39 0 c38 0 42 -4 109 -90
l69 -89 58 -1 57 0 -79 92 -80 92 28 12 c15 6 40 26 55 45 25 29 28 39 24 84
-3 31 -13 64 -26 82 -37 52 -75 63 -211 63 l-121 0 0 -235z m219 154 c56 -20
70 -83 25 -118 -21 -17 -41 -21 -95 -21 l-69 0 0 75 0 75 54 0 c29 0 67 -5 85
-11z"/>
<path d="M2836 2723 c-3 -76 -9 -182 -12 -235 l-5 -98 46 0 45 0 1 98 c0 53 4
119 7 147 l7 49 34 -64 c63 -121 123 -220 131 -220 5 0 44 65 87 145 l78 145
6 -97 c4 -54 7 -122 8 -150 l1 -53 46 0 46 0 -5 43 c-4 23 -9 129 -13 235 l-7
192 -41 0 -41 0 -85 -155 -85 -154 -78 154 -77 155 -44 0 -44 0 -6 -137z"/>
<path d="M3462 2693 c3 -156 5 -171 28 -213 37 -65 94 -95 186 -95 61 0 76 4
113 28 70 47 81 82 81 280 l0 167 -40 0 -40 0 0 -145 c0 -160 -9 -197 -55
-233 -54 -42 -145 -19 -171 43 -10 25 -14 77 -14 185 l0 150 -46 0 -46 0 4
-167z"/>
<path d="M4004 2625 l0 -235 158 0 158 0 0 40 0 40 -115 0 -115 0 0 195 0 195
-42 0 -43 0 -1 -235z"/>
<path d="M4505 2683 c-43 -98 -91 -204 -106 -235 l-27 -58 49 0 49 0 25 55 24
55 109 0 108 0 23 -55 23 -55 48 0 49 0 -14 33 c-7 17 -54 122 -104 232 l-90
200 -43 3 -44 3 -79 -178z m189 -90 c7 -22 6 -23 -68 -23 -42 0 -76 3 -76 7 0
4 17 47 37 95 l37 87 32 -72 c17 -40 34 -82 38 -94z"/>
<path d="M5737 2627 l1 -232 42 -3 41 -3 -3 160 c-2 89 0 160 3 159 4 -2 62
-73 131 -158 116 -145 127 -155 161 -158 l37 -3 0 235 0 236 -40 0 -41 0 3
-160 c2 -88 1 -160 -2 -160 -5 1 -188 228 -230 288 -20 27 -30 32 -64 32 l-41
0 2 -233z"/>
<path d="M6280 2625 l0 -235 165 0 165 0 0 40 0 40 -125 0 -125 0 0 70 0 70
105 0 105 0 0 35 0 35 -106 0 -105 0 3 52 3 53 120 2 120 2 3 36 3 35 -165 0
-166 0 0 -235z"/>
<path d="M6890 2820 l0 -40 80 0 80 0 0 -195 0 -195 45 0 45 0 0 195 0 195 80
0 80 0 0 40 0 40 -205 0 -205 0 0 -40z"/>
<path d="M7380 2625 l0 -235 171 0 170 0 -3 38 -3 37 -128 3 -128 3 3 67 3 67
100 3 101 3 -4 34 -4 35 -100 0 -99 0 3 53 3 52 120 2 120 1 3 36 3 36 -165 0
-166 0 0 -235z"/>
<path d="M7897 2639 c-54 -122 -101 -228 -104 -235 -4 -11 6 -14 41 -14 l47 0
24 55 25 55 109 0 109 0 22 -55 22 -55 49 0 48 0 -46 103 c-25 56 -71 161
-103 232 l-58 130 -43 3 -44 3 -98 -222z m182 19 c17 -42 31 -79 31 -82 0 -3
-34 -6 -76 -6 -57 0 -75 3 -71 13 35 92 72 166 77 160 4 -4 21 -43 39 -85z"/>
<path d="M8380 2768 c0 -51 -3 -157 -7 -235 l-6 -143 46 0 46 0 3 153 3 152
42 -80 c23 -45 59 -111 81 -149 36 -61 41 -66 55 -52 19 19 146 249 148 268 4
42 18 -94 18 -184 l1 -108 46 0 45 0 -6 123 c-3 67 -8 173 -11 235 l-6 112
-41 0 -42 0 -79 -150 c-55 -105 -82 -147 -90 -141 -6 5 -42 73 -81 150 l-69
141 -48 0 -48 0 0 -92z"/>
</g>
</svg>
