<svg id="Layer_1" data-name="Layer 1" xmlns="http://www.w3.org/2000/svg" viewBox="0 0 369 121.38"><title>Haas F1 Team logo - Brandlogos.net</title><path d="M373.82,388.86V363H411.2v25.87h9.22V333H411.2v22H373.82V333h-9.24v55.84ZM454.54,379a20.67,20.67,0,0,1-11.3,3.05c-5.5,0-9.19-2.38-9.19-5.92s2.52-5.35,9-6.16l8.92-1.07c3.55-.43,5.81-.87,7.24-1.85v4.18c0,3-1.66,5.77-4.67,7.77m5.31,3.94c.92,4.37,4.08,5,7.38,5a42.2,42.2,0,0,0,6.23-.46l.37-.06v-6.23l-.53.1a15.86,15.86,0,0,1-2.68.3c-2.21,0-3.11-.87-3.11-3V357c0-10.29-12.2-11.82-19.46-11.82-13.3,0-20,4.55-21,14.31l0,.47h8.33l0-.41c.19-5.08,4.23-7.55,12.34-7.55s11.48,1.84,11.48,6.15c0,3.14-2.19,3.92-6.79,4.39l-9,.92c-13.06,1.36-18.15,5-18.15,12.9,0,3.76,1.68,12.51,17.25,12.51,5.84,0,13.53-1.86,17.32-5.93m50.34-11.71c0,3-1.66,5.77-4.67,7.77a20.67,20.67,0,0,1-11.3,3.05c-5.5,0-9.19-2.38-9.19-5.92s2.52-5.35,9-6.16l8.92-1.07c3.54-.43,5.81-.87,7.24-1.85Zm14.09,10.06a15.8,15.8,0,0,1-2.68.3c-2.21,0-3.11-.87-3.11-3V357c0-10.29-12.2-11.82-19.46-11.82-13.3,0-20,4.55-21,14.31l0,.47h8.33l0-.41c.19-5.08,4.23-7.55,12.34-7.55s11.48,1.84,11.48,6.15c0,3.14-2.19,3.92-6.79,4.39l-9,.92c-13.06,1.36-18.15,5-18.15,12.9,0,3.76,1.68,12.51,17.25,12.51,5.84,0,13.53-1.86,17.32-5.93.92,4.37,4.08,5,7.39,5a42.19,42.19,0,0,0,6.22-.46l.37-.06v-6.23Zm3-7.28,0,.46c.69,9.56,7.7,14.4,20.82,14.4,6.32,0,11.3-1.15,14.79-3.42a12,12,0,0,0,5.63-10.71c0-6.21-4.54-9.72-14.29-11.06l-10.8-1.45c-5.26-.74-6.26-2.17-6.26-4.55,0-2,1.07-3.47,3.18-4.45a17,17,0,0,1,6.89-1.24c8.2,0,11.33,3.67,11.52,7.09l0,.4h8.47l0-.46c-.79-8.93-7.85-13.85-19.9-13.85-5.6,0-10.28,1.21-13.52,3.5a11.59,11.59,0,0,0-5.07,9.86c0,6.6,5.61,10.31,11.17,11.06l12.55,1.68c6,.83,7.16,2.44,7.16,4.94a4.5,4.5,0,0,1-2.21,3.84c-2,1.33-5.2,2-9.53,2-8.94,0-12.13-3.93-12.13-7.61V374Z" transform="translate(-199.5 -323.31)" style="fill:#e6002d"/><path d="M391.28,398.57h-26.7V435h5.8V419.11h19.93v-5.47H370.38V404h20.9Zm16.72,0,0,.41c-.35,4-3.77,6.1-10.15,6.1h-1.68v4.78H406.8V435h6.32l0-36.41ZM461.69,404v-5.47H430.13V404H443V435h5.91V404Zm12.37,9c4.32,0,7.45,2.29,8.28,6H465.45c.84-3.61,4.23-6,8.61-6m.24-4.71c-4.71,0-8.62,1.37-11.29,4a12.89,12.89,0,0,0-3.75,9.38c0,8.11,5.91,13.35,15.05,13.35,4.78,0,10.81-2.22,13.38-8.44l.23-.57h-6l-.11.24c-1.75,3.66-6,4.05-7.73,4.05-3.89,0-8.2-2.39-8.8-6.84h23.12v-1c0-10.43-7.28-14.14-14.09-14.14M511,424.17a5.52,5.52,0,0,1-2.7,4.56,11.93,11.93,0,0,1-6.62,1.82c-3.17,0-5.29-1.37-5.29-3.42s1.41-3.08,5.2-3.56l5.29-.65a11.7,11.7,0,0,0,4.11-1v2.23Zm8.49,5.92a8.78,8.78,0,0,1-1.55.17c-1.21,0-1.69-.47-1.69-1.66v-13c0-6.35-7.34-7.3-11.72-7.3-8,0-12,2.79-12.59,8.78l0,.46h5.28v-.4c.11-3,2.45-4.4,7.16-4.4s6.65,1.07,6.65,3.56c0,1.78-1.2,2.21-3.88,2.49l-5.34.56c-7.75.82-10.91,3.12-10.91,7.94,0,2.32,1,7.71,10.4,7.71,3.4,0,7.84-1.07,10.19-3.42.65,2.5,2.6,2.86,4.47,2.86a24.86,24.86,0,0,0,3.72-.28l.35-.06V430l-.51.1Zm49.06-12.57c0-7.3-6.26-9.25-9.95-9.25a12.44,12.44,0,0,0-10.09,4.33,10,10,0,0,0-8.55-4.33c-2.42,0-6.69.53-9.46,3.87v-3H524.8V435h5.65V420.15a6.52,6.52,0,0,1,2.32-5.23,8.57,8.57,0,0,1,5.47-1.78c2.55,0,5.59,1,5.6,5.53V435h5.64V419.43a5.55,5.55,0,0,1,2.29-4.77,9.42,9.42,0,0,1,5.49-1.53c2.55,0,5.59,1,5.6,5.53V435h5.63Z" transform="translate(-199.5 -323.31)"/><path d="M275.44,430.8a45.84,45.84,0,0,1-32.32-13.32h13S293.45,351,293.58,350.7s.09-.45-.17-.45H278.17c-.31,0-.35.09-.44.22s-21,37-21,37H229.3q-.13-1.76-.13-3.52c0-25.82,20.69-46.8,46.27-46.8a45.82,45.82,0,0,1,33.24,14.3c-3.65,6.23-20,34.37-22.23,38.47-1.28-3-7.18-2.4-10.22-2.45-1.32,2.23-7.53,14.07-7.53,14.07s3.43,0,6.51,0,3.35,3.2,2.16,5.21-6.08,10.68-6.08,10.68H287l30.25-53.42A46.59,46.59,0,0,1,321.71,384c0,25.83-20.73,46.79-46.27,46.79m-42.88-29.21h16l-7.71,13.49a48.5,48.5,0,0,1-8.27-13.49m42.88-78.28c-33.15,0-60,27.17-60,60.69,0,1.2,0,2.35.08,3.52h-7.84a.92.92,0,0,0-.84.58c-.13.31-7.09,12.69-7.27,13s-.13.49.22.49H218a60.1,60.1,0,0,0,57.45,43.1c33.16,0,60-27.17,60-60.69s-26.85-60.69-60-60.69" transform="translate(-199.5 -323.31)" style="fill:#e6002d"/><path d="M415.52,400.84h.28a.7.7,0,0,0,.24-.05.37.37,0,0,0,.16-.14.49.49,0,0,0,.06-.26.42.42,0,0,0-.06-.23.37.37,0,0,0-.14-.13.61.61,0,0,0-.2-.06l-.22,0h-.58v.91h.46Zm.19-1.26a1.16,1.16,0,0,1,.75.2.75.75,0,0,1,.24.61.7.7,0,0,1-.21.56,1,1,0,0,1-.53.21l.81,1.25h-.47l-.77-1.22h-.47v1.22h-.44v-2.84Zm-2,2.24a2,2,0,0,0,3.25.66,2,2,0,0,0,.42-.66,2.22,2.22,0,0,0,.15-.83,2.14,2.14,0,0,0-.15-.81,2,2,0,0,0-1.05-1.09,1.91,1.91,0,0,0-.78-.16,2,2,0,0,0-1.84,1.25,2.31,2.31,0,0,0,0,1.64Zm-.4-1.78a2.42,2.42,0,1,1,.52,2.7A2.43,2.43,0,0,1,413.33,400Z" transform="translate(-199.5 -323.31)"/></svg>