<?xml version="1.0" encoding="UTF-8"?><svg id="Layer_1" xmlns="http://www.w3.org/2000/svg" viewBox="0 0 723.45 633.15"><path d="M77.86,6.35C96.12,1.68,115.02-.07,133.83.03c23.42-.46,47.76,4.11,67.52,17.25,13.15,8.61,22.92,22.76,24.7,38.54,1.33,15.14-.93,31.51-10.42,43.86-10.68,13.89-30.3,18.55-46.77,14-5.09-1.39-9.52-4.89-11.72-9.74,10.11-8.22,20.16-17.52,25.16-29.84,3.35-7.64,1.64-16.48-2.01-23.69-4.62-9.08-13.29-15.69-22.91-18.75-13.74-4.49-28.47-3.44-42.61-1.84-17.88,2.42-36.05,8.93-48.72,22.28-11.01,11.42-16.59,27.11-17.82,42.73-.41,6.12-.9,12.52,1.37,18.36,2.54,7.07,7.59,12.88,13.01,17.94,8.91,8.07,19.24,14.34,29.65,20.24,24.14,13.42,49.5,24.57,73.14,38.9,13.12,8.1,25.95,17.22,35.65,29.36,6.83,8.57,11.48,19.18,11.61,30.25.14,13.96-2.48,28.05-8.33,40.76-7.56,16.8-20.43,30.79-35.5,41.19-25.8,17.64-56.86,26.49-87.79,28.97.71.03,2.12.08,2.83.11-14.57.6-29.54,2.14-43.77-1.99-11.43-3.07-22.12-9.56-29.34-19.05-6.03-7.87-9.53-17.55-10.5-27.38-1.37-21.82,2.62-44.72,14.93-63.13,9.27-14.14,24.78-23.89,41.54-26.12,8.23-1.11,17.58-2.14,24.79,2.93,5.39,3.53,7.7,9.96,8.84,16.01-14.04,4.87-27.38,12.87-36.63,24.7-8.85,11.19-13.5,25.71-12.62,39.97,1.3,9.27,8.39,17.08,16.87,20.65,9.5,4.22,20.25,3.18,30.21,1.52,21.2-3.91,42.26-12.63,57.58-28.19,12.65-12.78,19.35-30.99,18.45-48.91-.36-5.64-2.81-10.93-6.01-15.51-6.35-8.71-15.48-14.8-24.51-20.42-27.09-15.9-56.75-26.94-83.5-43.48-16.34-10.08-32.2-22.42-41.61-39.53-5.18-9.47-7.93-20.32-7.57-31.13-.17-22.21,5.78-45.27,20.36-62.47C35.62,22.14,56.52,11.82,77.86,6.35Z"/><path d="M308.02,58.06c7.94-2.41,16.23-5.04,24.63-3.71-.16,2.57-.45,5.13-1.05,7.63-5.15,21.91-10.39,43.8-15.62,65.69,13.16-2.86,26.37-5.6,39.74-7.22,5.2-.31,11.13-1.24,15.65,1.99,2.4,1.6,3.49,4.69,2.62,7.45-1.12,3.3-3.45,5.96-5.41,8.77-4.14,5.54-8.09,11.26-12.79,16.34-2.36,2.62-5.83,3.7-9.19,4.33-13.81,2.58-27.48,5.9-41.12,9.27-5.92,21.24-11.72,42.52-16.76,63.98-1.5,7.07-3.4,14.08-4.22,21.28-.33,4.99.36,10.59,3.89,14.41,3.5,3.55,8.99,3,13.34,1.58,11.01-3.74,20.85-10.13,30.73-16.15,1.09-13.21,3.44-26.43,8.75-38.65,8.29-19.63,22.61-36.88,40.98-47.82,10.77-6.19,23.11-10.71,35.69-9.78,5.72.49,7.14,7.11,11.63,9.57,6.54,3.18,14.36-.72,20.82,2.63,4.64,3.49,4.17,10.05,4.04,15.23-1.73,22.27-10.47,43.53-10.78,65.97.3,6.11.24,12.57,3.05,18.16,1.65,3.72,6.46,2.74,9.37,1.23,6.11-3.41,10.72-8.92,14.93-14.39,2.08-2.97,4.59-5.83,5.51-9.43,11.18-54.73,26.23-108.56,39.57-162.78,1.98-8.74,4.38-17.41,5.44-26.32,10.06-3,21.59-4.07,31.28.72,7.19,3.59,10.08,12.28,9.16,19.87-1.94,20.04-8.74,39.15-14.85,58.2-4.48,14.03-9.82,27.87-12.43,42.41,14.61-7.58,26.94-18.73,38.82-29.96,11.72-11.24,22.77-23.16,33.32-35.5,6.84,1.55,14.22,3.42,19.2,8.73,3.71,3.63,3.26,9.72.7,13.89-4.1,7-10.18,12.53-15.91,18.17-16.96,15.65-35.12,29.96-53.64,43.72,2.74,21.65,7.7,43.09,15.57,63.46,7.17,18.25,16.92,36.06,31.64,49.32,10.53,9.57,24.11,15.89,38.36,16.97,24.01,1.42,49.33-3.87,68.41-19.17,3.45-2.73,6.59-6.06,10.85-7.54,3.38,10.16,1.04,22.09-6.52,29.78-9.34,9.68-22.54,14.31-35.38,17.15-17.48,3.39-35.6,4.22-53.21,1.35-20.33-3.44-39.75-13.06-54.13-27.93-11.14-10.77-19.64-24.01-26.27-37.95-11.01-23.53-16.83-49.15-19.88-74.86-3.24,8.76-4.39,18.09-5.56,27.29-1.52,12.08-1.87,24.24-2.57,36.38-.43,7.02-.08,14.13-1.36,21.06-4.89,3.87-11.2,5.28-17.14,6.7-7.53,1.32-16.36,1.87-22.65-3.27-5.27-4.36-5.83-11.7-5.84-18.05-5.13,7.43-11.24,14.6-19.23,19.02-6.22,3.56-14.01,2.44-20.15-.7-7.72-3.98-12.49-11.66-15.93-19.34-10.96,10.8-24.79,19.54-40.3,21.49-11.83,1.66-24.82-1.8-33.09-10.73-3.12-3.17-5.19-7.15-7.09-11.12-15.66,10.97-33.54,19.54-52.76,21.44-9.55.6-19.76.67-28.31-4.26-7.8-4.08-12.38-12.62-13.18-21.19-.9-9.39,1.03-18.73,2.46-27.97,3.93-21.78,9.06-43.33,14.49-64.78-11.09,4.17-22.2,8.39-33.69,11.31-4.2,1.01-8.6,1.79-12.9,1-4.93-1.28-8.38-5.43-11.15-9.45-3.86-6.21-6.65-13.09-8.35-20.2,25.08-9.03,50.44-17.25,75.67-25.85,4.35-16.34,8.62-32.71,12.99-49.04,2.98-13.65,13.37-26.15,27.11-29.83ZM403.82,189.86c-11.9,10.14-20.74,23.44-27.6,37.37-4.57,10.28-9.1,21.29-8.02,32.77.27,4.79,3.52,9.62,8.43,10.55,6.64,1.22,13.71-.64,19.14-4.59,9.29-6.96,14.2-18.08,17.58-28.86,5.19-17.83,7.27-36.52,7.08-55.06-6.2.86-11.88,3.8-16.61,7.82Z"/><path d="M653.07,167.03c10.91-5.82,23.36-9.6,35.83-8.26,10.89,1.01,21.86,5.42,29.2,13.75,5.52,6.41,4.65,15.53,3.96,23.35-1.95,17.07-13.99,31.74-29.14,39.2-15.24,7.76-32.79,9.24-49.62,8.1-.62,7.76-.98,16.57,4.34,22.93,4.04,5.14,10.91,6.85,17.18,6.58,8.35.23,16.71-1.75,24.09-5.66,7.09-3.85,12.87-9.56,18.76-14.97,6,3.51,10.93,9.64,11.38,16.77-.22,5.25-4.78,8.7-8.34,11.96-15.52,12.76-35.59,20.63-55.84,19.65-13.47-.37-27.25-5.02-36.92-14.68-10.22-10.15-15.16-24.66-15.73-38.85-.7-15.81,4.43-31.48,12.95-44.68,9.47-14.61,22.57-26.91,37.9-35.19ZM682.15,179.1c-8.39,4.7-14.76,12.21-20.19,19.99-6.69,9.76-12.28,20.5-14.68,32.16,12.19.41,24.26-4.46,32.8-13.15,8.7-8.81,15.7-20.45,15.63-33.18-.06-2.85.44-6.25-1.79-8.45-4.09-.96-8.22.71-11.77,2.63Z"/><path d="M232.23,412.61c7.09-2.83,15.59,3.67,14.32,11.31-.31,8.13-11.15,12.61-17.24,7.32-6.65-4.68-4.79-16.17,2.92-18.63ZM232.04,414.28c-6.36,2.55-7.37,12.21-1.66,16,5.34,4.35,14.14.43,14.79-6.33,1.2-6.87-6.9-12.93-13.13-9.67Z"/><path d="M114.1,414.14c14.76-.04,29.52.02,44.29-.03.01,4.18,0,8.36.08,12.54-10.3-.1-20.6-.04-30.9-.02-.08,4.22-.08,8.46-.01,12.69,10.13.02,20.27-.05,30.41.02-.03,4.23-.01,8.46-.01,12.69-10.14.01-20.27.01-30.41.01.01,8.82,0,17.64,0,26.46-4.48-.01-8.96-.03-13.44,0,.02-21.46.03-42.91-.01-64.36Z"/><path d="M200.36,414.17c3.63-.04,7.26-.05,10.9-.03-.05,21.45-.02,42.89-.02,64.34-4.55.03-9.09.04-13.63-.02,0-14.54.03-29.09-.02-43.64-2,2.1-3.99,4.21-5.96,6.34-2.92-3-5.86-5.99-8.78-8.98,5.69-6.15,11.74-11.94,17.51-18.01Z"/><path d="M299.33,414.1c16.75.07,33.49.01,50.24.04-.02,4.17-.03,8.34.06,12.52-6.13-.13-12.26-.05-18.39-.06-.09,17.3-.01,34.59-.04,51.89-4.53,0-9.06.02-13.58-.04-.06-17.29.07-34.57-.07-51.85-6.09.03-12.17.03-18.26,0,.03-4.17.04-8.34.04-12.5Z"/><path d="M380.61,414.21c14.85-.19,29.71-.07,44.56-.07.02,4.17,0,8.33.06,12.5-10.33-.06-20.66,0-30.99-.04-.04,4.23-.04,8.45-.02,12.68,10.07.05,20.15.02,30.22.02,0,4.25-.01,8.51,0,12.77-10.08-.05-20.16-.04-30.23-.01,0,4.54.02,9.07.03,13.61,10.31.18,20.63-.31,30.93.3.01,4.17,0,8.33,0,12.5-14.86.02-29.72.1-44.58-.04.02-21.41,0-42.81,0-64.22Z"/><path d="M478.37,414.15c4.41,0,8.82.01,13.24-.02,8.61,21.46,17.23,42.91,25.96,64.32-4.94.02-9.88.01-14.82.01-1.72-4.32-3.43-8.65-5.23-12.94-8.39.03-16.77-.02-25.15.03-1.66,4.32-3.37,8.62-5.07,12.93-4.91.03-9.82.02-14.73,0,8.51-21.48,17.18-42.89,25.8-64.33ZM484.95,432.28c-2.65,6.94-5.37,13.86-8.04,20.79,5.32.02,10.63,0,15.96,0-2.3-7.06-5.23-13.89-7.92-20.8Z"/><path d="M546.1,414.14c5.21-.01,10.41-.06,15.62.06,5.34,13.03,10.48,26.14,15.98,39.1,5.16-13.12,10.65-26.1,15.92-39.18,5.19,0,10.39-.01,15.6.01.1,21.45,0,42.89.05,64.34-4.53.02-9.06.02-13.59.01-.15-11.83.18-23.66-.19-35.48-4.46,11.96-9.51,23.69-14.32,35.51-2.39,0-4.77-.02-7.14-.03-4.83-11.87-9.68-23.73-14.51-35.6-.13,11.87-.03,23.75-.06,35.63-4.45-.02-8.89,0-13.33-.02-.02-21.45.02-42.9-.03-64.35Z"/><path d="M231.65,416.44c2.91.08,5.8.42,8.66,1,.06,1.82.13,3.65.11,5.48-.64.23-1.93.68-2.57.91.98,1.92,1.99,3.83,2.91,5.8-2.5-1.95-4.53-4.41-6.96-6.43-.31,2.35-.66,4.71-1.04,7.06-1.45-4.46-1.14-9.2-1.11-13.82ZM233.43,417.85c-.02,1.56-.04,3.13-.05,4.71,1.74-.02,3.48-.11,5.23-.14.15-1.11.25-2.22.31-3.32-1.59-1.16-3.65-.94-5.49-1.25Z"/><path d="M368.24,558.3c5.55-5.76,13.88-7.92,21.68-7.55,7.66.44,15.29,1.89,22.53,4.48-1.05,3.8-2,7.64-3.09,11.43-7.78-1.09-15.67-2.54-23.54-1.82-6.84.54-11.05,9.45-6.8,14.9,6.28,5.44,15.43,6.52,21.16,12.77,4.61,5.25,4.23,12.89,3.36,19.38-1.19,8.97-8.08,16.48-16.58,19.21-12.14,3.98-25.35,1.45-37.07-2.75.79-3.85,1.71-7.67,2.59-11.49,9.62.95,19.59,3.85,29.12.94,4.69-1.34,6.57-6.6,6-11.06.23-4.09-4.07-5.97-7.08-7.59-6.71-3.37-14.95-6.26-18.09-13.74-3.02-9.14-1.18-20.2,5.81-27.11Z"/><path d="M8.6,552.08c8.9-.4,17.81.14,26.72.01-.06,5.82-.02,11.64-.04,17.47,2.97,0,5.95,0,8.93.02-.04-2.98-.02-5.94.05-8.91,2.96,0,5.92,0,8.89,0,0-2.87-.01-5.74-.01-8.6,8.81-.05,17.63-.05,26.45,0,.01,8.82.01,17.64,0,26.46-2.86-.01-5.71-.03-8.55-.04-.23,2.97-.48,5.95-.49,8.95-2.83-.06-5.66-.07-8.48-.08-.02,2.99-.02,5.98,0,8.98,2.96.01,5.92.02,8.89.06,0,2.93,0,5.87,0,8.81,2.86,0,5.73,0,8.6-.01-.02,8.84-.08,17.68.03,26.53-8.82-.11-17.65-.03-26.47-.05,0-2.86,0-5.71.03-8.56-2.97-.05-5.94-.07-8.91-.08-.05-2.98-.05-5.96-.06-8.94-2.97.02-5.93.02-8.89.02,0,5.86-.02,11.72.03,17.58-8.91-.06-17.83.11-26.74-.1.06-26.5.04-53.01.01-79.51Z"/><path d="M88.48,552.09c8.89-.81,17.82.31,26.74-.04-.04,26.55-.06,53.1.01,79.64-8.92.04-17.85,0-26.78-.03.04-26.52-.01-53.04.03-79.57Z"/><path d="M132.99,552.08c7.25-.68,14.54-.3,21.82-.39,7.45.08,14.92-.2,22.37.21.03,8.86,0,17.73.02,26.6-8.88-.02-17.75,0-26.62-.02-.04,8.9-.02,17.81-.02,26.71,8.88.02,17.76.01,26.64,0,.03,8.83-.04,17.66.04,26.49-14.76-.03-29.52-.02-44.27-.01,0-2.83,0-5.65.03-8.48-2.99-.12-5.99-.28-8.97-.5.06-20.69-.05-41.37.06-62.05,2.96,0,5.92,0,8.89-.02-.01-2.85,0-5.7,0-8.54Z"/><path d="M186.16,552c8.83-.73,17.67.49,26.52.02.02,5.85.03,11.71.01,17.56,2.94.01,5.88.01,8.83,0-.01-2.88-.02-5.77-.02-8.65,2.99-.23,5.99-.35,9-.34-.05-2.96-.05-5.92-.02-8.88,8.86.04,17.72.14,26.59.28.01,8.84-.05,17.68.03,26.52-2.96,0-5.92-.02-8.87-.02-.03,2.96-.03,5.94-.04,8.91-2.97,0-5.93-.02-8.89-.03-.02,2.98-.03,5.96-.03,8.94,2.99,0,5.98,0,8.97.01,0,2.95,0,5.91.01,8.87,2.93.01,5.88.01,8.82.03.01,8.82-.03,17.64.02,26.46-8.88-.01-17.76,0-26.63,0,0-2.87,0-5.73.03-8.58-3-.05-5.99-.16-8.98-.37.01-2.86.01-5.71,0-8.56-2.94-.04-5.88-.05-8.81-.03,0,5.86-.03,11.71.03,17.57-8.86-.07-17.72-.02-26.58-.03-.01-26.56-.05-53.12.01-79.68Z"/><path d="M303.52,552.06c1.98-.02,3.97-.02,5.96-.03.1,26.54.03,53.08.02,79.62-1.98,0-3.96,0-5.93.01-.14-26.54-.04-53.07-.05-79.6Z"/><path d="M435.98,552.3c9.37-.07,18.74-.06,28.12-.01-.86,9.68-.6,19.41-1.03,29.12-.81,16.7-.9,33.43-1.6,50.15-5.38-.02-10.77-.02-16.14,0,.22-4.62.36-9.24.36-13.86-7.7.12-15.42-.28-23.11.38-1.99,4.48-3.9,9-6,13.44-5.38.04-10.76.02-16.14,0,11.88-26.39,23.84-52.74,35.54-79.21ZM444.56,568.49c-5.34,11.7-10.43,23.51-15.7,35.24,5.82.06,11.65.03,17.48.04.74-12.79,1.14-25.59,1.67-38.39-1.2.98-2.88,1.54-3.45,3.11Z"/><path d="M482.42,552.26c5.38.02,10.75-.02,16.14.01-4.21,18.18-8.58,36.32-12.59,54.54-.61,3.66-1.86,9.28,2.46,11.15,5.12,1.62,11.44,2,15.94-1.43,4.22-3.78,4.99-9.76,6.33-14.96,3.63-16.43,7.86-32.73,11.19-49.23,5.43-.13,10.87-.07,16.31-.09-4.07,17.57-8.11,35.15-12.18,52.71-2.08,8.62-5.49,17.76-13.08,23.01-8.78,5.96-20.28,6.15-30.28,3.69-5.58-1.35-11.04-5.14-12.56-10.92-1.64-6.63-.33-13.53,1.08-20.07,3.82-16.13,7.47-32.28,11.24-48.41Z"/><path d="M549.01,552.27c9.63,0,19.25-.03,28.88-.01,5.68.04,11.87,1.36,15.83,5.74,4.27,5.14,4.19,12.55,2.67,18.73-1.62,6.24-6.78,10.57-11.92,14,2.79,2.11,5.86,4.48,6.69,8.1,1.49,7.72.19,16.33-4.97,22.49-5.52,7.02-14.68,10.17-23.38,10.2-10.68.05-21.35.03-32.02-.01,5.98-26.43,12.18-52.82,18.22-79.24ZM561.82,566.1c-1.27,6.34-2.93,12.6-4.18,18.95,4.94-.09,9.97.47,14.86-.55,5.5-1.29,8.94-7.23,8.18-12.7.24-2.86-1.99-5.4-4.82-5.62-4.67-.43-9.37-.13-14.04-.08ZM550,617.68c5.62-.12,11.28.36,16.88-.27,5.63-1.13,8.63-7.33,8.41-12.66.3-3.1-2.31-5.96-5.34-6.21-5.13-.48-10.29-.11-15.42-.21-1.47,6.46-3.05,12.89-4.53,19.35Z"/><path d="M612.32,552.25c15.48-.02,30.96-.02,46.44-.01-.95,4.7-2.08,9.36-3.15,14.04-10.2-.01-20.39-.15-30.58.08-1.12,6.29-2.78,12.46-4.03,18.71,7.94-.01,15.89-.06,23.84.03-.94,4.68-2.04,9.32-3.26,13.93-7.95-.01-15.9-.06-23.84.03-1.36,6.17-2.82,12.31-4.29,18.44,10.17.05,20.34,0,30.51.03-1.05,4.65-2.18,9.28-3.08,13.97-15.59.11-31.18.05-46.76.02,6.09-26.42,12.12-52.85,18.2-79.27Z"/><path d="M667.29,552.23c8.84.09,17.69-.14,26.53.11,6.46.37,13.6,2.4,17.37,8.09,4.04,6,3.59,13.63,2.98,20.51-1.18,10.18-8.02,19.22-17.27,23.52,2.2,9.01,4.2,18.08,6.44,27.09-5.37-.02-10.74-.02-16.1,0-1.84-8.36-3.52-16.75-5.26-25.13-3.73-.04-7.45-.05-11.16.01-1.84,8.39-3.83,16.75-5.76,25.12-5.37.02-10.73.02-16.09-.06,6.11-26.42,12.12-52.86,18.32-79.26ZM680.27,566c-2.09,8.84-4.19,17.67-6.22,26.53,5.75-.34,12.24,1.41,17.38-1.98,5.05-3.79,7.27-10.59,6.61-16.73-.39-2.93-1.43-6.54-4.71-7.28-4.29-.92-8.72-.42-13.06-.54Z"/></svg>