<svg xmlns="http://www.w3.org/2000/svg" viewBox="0 0 455 116.32"><title>McLaren Formula 1 team logo - Brandlogos.net</title><path d="M524,509c0,1.82-.8,3.14-3.29,3.14H504.84c-2,0-3.22-.59-3.22-2.49s.8-2.84,3.22-2.84H524Zm70-7.58v-2c0-1.9.8-3.14,3.37-3.14h15.88c2.18,0,3.28.65,3.28,2.7,0,1.74-.86,2.55-3.12,2.55Zm41.7-14.06v33.52h16.06V496.49h13.1c4.46,0,6.72,1.4,6.72,5.69v18.73h16V500.86c0-9.4-5.19-13.48-19.82-13.48Zm-39.44,0c-12.91,0-18.08,4.29-18.08,14v6.64c0,8.37,5.17,12.89,16.84,12.89H629v-8.75H598.19c-3,0-4.08-.88-4.08-3.14v-1.38h24.27c8.37,0,13.1-2.62,13.1-8.89v-1.52c0-5.69-2.84-9.77-17-9.77Zm-51.57,33.52h16V498.89c0-1.52.59-2.41,2.56-2.41h12.39v-9.1H557.89c-9.56,0-13.2,3.56-13.2,9.54Zm-54.8-33.52v8.83H520c3,0,4,1,4,3.22v1.29H499.88c-10.13,0-13.18,4.17-13.18,9.48v1.3c0,7.37,5.9,9.4,17.49,9.4H522c12.6,0,18.06-2.84,18.06-12.76v-7.74c0-8.39-5.17-13-16.9-13ZM394,506c0,10.62,5.38,14.86,19.31,14.86h30.55v-9.1H415.62c-3.35,0-5.61-1.52-5.61-6.34V502.6c0-4.31,2.11-6.07,5.54-6.07h28.29v-9.1h-31c-13.65,0-18.87,5.75-18.87,14.94Zm54.6-24V520.9h34.88v-9.1H464.66V482.05Zm-100.1,21.72V482.05h-9.1c-5.61,0-8.81,2.24-12.13,4.88l-42.74,34h19.31l28.44-23v23h13.33l27.54-23.18V520.9h16.34V482.05h-8.9c-4.81,0-8.16,2-11.51,4.73Z" transform="translate(-284.5 -453.84)"/><path d="M726.2,453.84c-8.95,0-21.55,2.67-35.22,7.67A178.75,178.75,0,0,0,656.1,478.7a100.33,100.33,0,0,1,32.82-6.14c15.68,0,26.85,6.07,10.36,27,48.54-31.85,47.28-45.68,26.92-45.68" transform="translate(-284.5 -453.84)" style="fill:#ff8000"/><path d="M373.87,554.46h9.95v2.93H377v3.46h6.07v2.94H377v6.07h-3.15Z" transform="translate(-284.5 -453.84)"/><path d="M395.87,562.3V562c0-4.64,2.91-7.89,7-7.89s7,3.22,7,7.84v.26c0,4.55-2.93,7.89-7,7.89S395.87,566.91,395.87,562.3Zm10.62,0V562c0-3-1.52-5-3.69-5s-3.64,1.93-3.64,5v.15c0,3,1.52,5,3.72,5s3.66-1.91,3.66-4.94Z" transform="translate(-284.5 -453.84)"/><path d="M423.16,554.46H429a5.75,5.75,0,0,1,4.17,1.52,4.84,4.84,0,0,1,1.3,3.58h0a4.67,4.67,0,0,1-2.87,4.55l3.29,5.73h-3.66l-2.85-5.08h-2v5.08h-3.22Zm5.57,7.58a2.23,2.23,0,0,0,2.52-2.32h0c0-1.52-1-2.32-2.58-2.32h-2.29V562Z" transform="translate(-284.5 -453.84)"/><path d="M447.81,554.46h3.35l3.44,6.26,3.41-6.26h3.37v15.41h-3.14V560l-3.64,6.37h0L451,560.06v9.81h-3Z" transform="translate(-284.5 -453.84)"/><path d="M475.2,563.86v-9.4h3.22v9.46c0,2.18,1,3.26,2.68,3.26s2.7-1.06,2.7-3.2v-9.53H487v9.37c0,4.26-2.34,6.32-5.92,6.32S475.2,568.11,475.2,563.86Z" transform="translate(-284.5 -453.84)"/><path d="M500.79,554.46H504V567h6.25v2.94h-9.45Z" transform="translate(-284.5 -453.84)"/><path d="M527.94,554.34h3l5.55,15.53h-3.28l-1.18-3.28h-5.31l-1.09,3.28h-3.2Zm3.15,9.36-1.68-5-1.7,5Z" transform="translate(-284.5 -453.84)"/><path d="M567.24,557.6l-2.35.64-.52-2.78,3.76-1.15h2.21v15.56h-3.15Z" transform="translate(-284.5 -453.84)"/><path d="M603.64,557.39h-3.88v-2.93h11v3h-3.9V570h-3.17Z" transform="translate(-284.5 -453.84)"/><path d="M623.4,554.46h9.95v2.88H626.6v3.34h6v2.88h-6V567h6.86v2.9h-10Z" transform="translate(-284.5 -453.84)"/><path d="M651.31,554.34h3l5.54,15.53h-3.31l-1.12-3.28h-5.32L649,569.95h-3.22Zm3.15,9.36-1.67-5-1.7,5Z" transform="translate(-284.5 -453.84)"/><path d="M672.5,554.46h3.32l3.44,6.26,3.44-6.26h3.38v15.41h-3.14V560l-3.64,6.37h0l-3.63-6.32v9.81h-3.12Z" transform="translate(-284.5 -453.84)"/></svg>