<svg id="Layer_1" data-name="Layer 1" xmlns="http://www.w3.org/2000/svg" xmlns:xlink="http://www.w3.org/1999/xlink" viewBox="0 0 684.38 49.72"><defs><clipPath id="clip-path" transform="translate(-41.81 -359.12)"><rect x="41.79" y="359.14" width="684.42" height="49.72" style="fill:none"/></clipPath></defs><title>Williams Racing logo - Brandlogos.net</title><g style="clip-path:url(#clip-path)"><path d="M238.05,408H249V359.87H238.05Zm-31.76-48.11H195.38V408h31.7v-8.7H206.29Zm136.38,25.89-23.3-26.44h-1.46V408h10.53V390.3a71.72,71.72,0,0,0-.35-8.16s1.85,2.84,3.72,5.09L342,399.72h1.54l10.09-12.49c1.82-2.24,3.67-5.08,3.67-5.08a71.72,71.72,0,0,0-.35,8.16V408h10.53v-48.7H366l-23.3,26.44Zm61.06-6.63-2.48-1.06c-3.23-1.37-6.1-2.91-6.1-5.89,0-2.41,1.37-4,4.28-4a7.56,7.56,0,0,1,6.58,4.2l8.18-4.87c-3.45-6-9-8.39-15-8.39-8.86,0-14.39,5.81-14.55,13.25-.17,8.27,5.72,12,12.88,15.05l2.48,1.06c4.54,2,6.67,3.49,6.59,6.5-.09,2.84-2,4.89-6.09,4.89-4.89,0-7.77-2.69-9.5-6.37l-8.64,4.94c2.34,5.42,8.82,10.4,18.07,10.4s16.73-4.85,17-13.77c.27-7.69-4.88-12.46-13.74-16v.06ZM73.41,359.47l-17.72,38.4L59.39,408h1.73l10.69-24.09a36.62,36.62,0,0,0,2.37-6.06,39.93,39.93,0,0,0,2.33,6L87.26,408H89l3.69-10.11L75,359.47Zm-20.36.4H41.81l12.74,34.89,6-13.08Zm34.68,21.69,6.08,13.2,12.78-34.89H95.24ZM121.17,408h10.91V359.87H121.17Zm42.11-48.11H152.37V408h31.7v-8.7H163.28Zm120.37,32h-5.44l4.14-10.62c.78-2,1.3-3.69,1.3-3.69s.51,1.71,1.29,3.69l4.14,10.57Zm.78-32.48h-1.56l-21.48,48.54h10.48l3.13-7.7h17.29l3.13,7.7h10.49Z" transform="translate(-41.81 -359.12)" style="fill:blue"/><path d="M593.58,359.87H604.5V408H593.58Zm-21.51,32-.28.43c-3.08,4.7-6.58,6.71-11.71,6.71-8,0-13.77-6.32-13.77-15s5.66-14.88,13.77-14.88a12.41,12.41,0,0,1,11,5.92l.28.46,8.24-5.85-.26-.41c-4.25-6.66-10.53-9.89-19.26-9.89C546,359.37,535.33,370,535.33,384s10.64,24.69,24.75,24.69c8.7,0,15.65-3.68,20.11-10.63l.26-.41Zm154.08-9.58v-.47h-23v9.45h11.63c-1.23,4-5.41,7.8-12.37,7.8-8.11,0-14-6.34-14-15.09s5.72-14.88,13.92-14.88a12.22,12.22,0,0,1,11.08,6.2l.28.46,8.45-6-.26-.41c-4.35-6.73-10.75-10-19.55-10-14.2,0-24.9,10.59-24.9,24.62,0,14.31,10.53,24.69,25,24.69,7.4,0,13.49-2.28,17.6-6.61,4.41-4.62,6.52-11.45,6.11-19.77Zm-72.63-22.39v20.25c0,2.11-.11,4.1.08,6a43.06,43.06,0,0,0-4.16-4.17l-23.77-22.31-.14-.14h-1.67V408h10.08V387.78a58.86,58.86,0,0,0-.09-6A44.53,44.53,0,0,0,638,386l23.8,22.3.14.14h1.67V359.91ZM464,375.89c0,4.49-2.33,6.57-7.33,6.57h-7V369.39h7C461.67,369.39,464,371.46,464,375.89Zm2,14c5.8-2.5,9-7.46,9-14,0-10-6.74-16-18-16H439V408h10.7V391.64h5.38L464.65,408h12.26L466,389.89Zm40.75,2h-5.43l4.13-10.62c.79-2,1.3-3.69,1.3-3.69s.52,1.71,1.3,3.69l4.14,10.57Zm.78-32.48H506l-21.48,48.54H495l3.13-7.68h17.28l3.14,7.7H529Z" transform="translate(-41.81 -359.12)" style="fill:blue"/></g></svg>